<svg width="150" height="130" viewBox="0 0 150 130" fill="none" xmlns="http://www.w3.org/2000/svg">
<ellipse opacity="0.1" cx="75" cy="125.055" rx="75" ry="4.5" fill="white"/>
<path fill-rule="evenodd" clip-rule="evenodd" d="M116.482 4.4462C116.515 2.26388 118.312 0.521805 120.494 0.555159C122.676 0.588512 124.418 2.38467 124.385 4.56698L124.261 12.6958C124.227 14.8781 122.431 16.6202 120.249 16.5868C118.067 16.5535 116.324 14.7573 116.358 12.575L116.482 4.4462ZM120.448 3.55482C119.922 3.54678 119.49 3.9664 119.482 4.49204L119.357 12.6209C119.349 13.1465 119.769 13.5791 120.295 13.5872C120.82 13.5952 121.253 13.1756 121.261 12.6499L121.385 4.52114C121.393 3.99549 120.974 3.56285 120.448 3.55482ZM124.832 20.8657C124.865 18.6834 126.661 16.9413 128.843 16.9746L136.972 17.0989C139.155 17.1322 140.897 18.9284 140.863 21.1107C140.83 23.293 139.034 25.0351 136.851 25.0017L128.723 24.8775C126.54 24.8442 124.798 23.048 124.832 20.8657ZM128.798 19.9743C128.272 19.9663 127.839 20.3859 127.831 20.9115C127.823 21.4372 128.243 21.8698 128.769 21.8779L136.897 22.0021C137.423 22.0101 137.856 21.5905 137.864 21.0649C137.872 20.5392 137.452 20.1066 136.926 20.0985L128.798 19.9743ZM33.2937 27.1999C34.4845 22.5556 38.6701 19.3078 43.4646 19.3078H111.035C115.83 19.3078 120.016 22.5556 121.206 27.1999L128.496 55.628C128.848 57.0012 128.918 58.4314 128.703 59.8325L124.468 87.3575C123.68 92.4797 119.273 96.2609 114.09 96.2609H50.9413C47.8068 103.916 40.2829 109.308 31.4995 109.308C19.9015 109.308 10.4995 99.9061 10.4995 88.308C10.4995 78.2733 17.5377 69.8825 26.9469 67.8028L25.7767 59.7877C25.5758 58.4118 25.6502 57.0097 25.9955 55.6628L33.2937 27.1999ZM29.9151 67.3668C30.4381 67.3278 30.9665 67.308 31.4995 67.308C43.0975 67.308 52.4995 76.71 52.4995 88.308C52.4995 90.0141 52.296 91.6727 51.9121 93.2609H114.09C117.792 93.2609 120.94 90.56 121.503 86.9013L125.737 59.3764L125.746 59.3183L125.751 59.2835H103.383L97.0426 68.1601C95.0717 70.9195 91.8894 72.5572 88.4984 72.5572H66.9479C63.5569 72.5572 60.3747 70.9195 58.4037 68.1601L52.0633 59.2835H28.7352L28.7452 59.3543L29.9151 67.3668ZM118.3 27.945L125.567 56.2835H115.725V55.3364V55.2508V47.3544V45.7703V36.2883C115.725 32.1462 112.367 28.7883 108.225 28.7883H46.2724C42.1303 28.7883 38.7724 32.1462 38.7724 36.2883V45.7703V47.3544V55.2508V55.3364V56.2835H28.9334L36.1997 27.945C37.0503 24.6277 40.04 22.3078 43.4646 22.3078H111.035C114.46 22.3078 117.45 24.6277 118.3 27.945ZM112.725 39.7697C111.472 38.8282 109.914 38.2703 108.225 38.2703H46.2724C44.584 38.2703 43.0259 38.8282 41.7724 39.7697V36.2883C41.7724 33.803 43.7872 31.7883 46.2724 31.7883H108.225C110.711 31.7883 112.725 33.803 112.725 36.2883V39.7697ZM41.7724 56.2835H52.8352C53.3196 56.2835 53.7742 56.5175 54.0558 56.9117L60.8449 66.4164C62.2527 68.3874 64.5258 69.5571 66.9479 69.5571H88.4984C90.9206 69.5571 93.1936 68.3874 94.6014 66.4164L101.391 56.9117C101.672 56.5175 102.127 56.2835 102.611 56.2835H112.725V55.4784L112.423 53.8998C112.385 53.6995 112.339 53.5024 112.286 53.3087C111.561 51.7957 110.015 50.7508 108.225 50.7508H46.2724C44.202 50.7508 42.4581 52.1491 41.9337 54.0528C41.9087 54.2007 41.8879 54.3501 41.8716 54.501L41.7724 55.4173V56.2835ZM13.4995 88.308C13.4995 78.3669 21.5584 70.308 31.4995 70.308C41.4406 70.308 49.4995 78.3669 49.4995 88.308C49.4995 98.2492 41.4406 106.308 31.4995 106.308C21.5584 106.308 13.4995 98.2492 13.4995 88.308ZM27.7495 78.558C27.7495 76.4869 29.4284 74.808 31.4995 74.808C33.5706 74.808 35.2495 76.4869 35.2495 78.558V87.558C35.2495 89.6291 33.5706 91.308 31.4995 91.308C29.4284 91.308 27.7495 89.6291 27.7495 87.558V78.558ZM31.4995 77.808C31.0853 77.808 30.7495 78.1438 30.7495 78.558V87.558C30.7495 87.9722 31.0853 88.308 31.4995 88.308C31.9137 88.308 32.2495 87.9722 32.2495 87.558V78.558C32.2495 78.1438 31.9137 77.808 31.4995 77.808ZM31.4995 101.808C29.4284 101.808 27.7495 100.129 27.7495 98.0581C27.7495 95.987 29.4284 94.3081 31.4995 94.3081C33.5706 94.3081 35.2495 95.987 35.2495 98.0581C35.2495 100.129 33.5706 101.808 31.4995 101.808ZM30.7495 98.0581C30.7495 98.4723 31.0853 98.8081 31.4995 98.8081C31.9137 98.8081 32.2495 98.4723 32.2495 98.0581C32.2495 97.6438 31.9137 97.3081 31.4995 97.3081C31.0853 97.3081 30.7495 97.6438 30.7495 98.0581Z" fill="white"/>
</svg>
