<svg width="150" height="130" viewBox="0 0 150 130" fill="none" xmlns="http://www.w3.org/2000/svg">
<path d="M150 125.055C150 127.54 116.421 129.555 75 129.555C33.5786 129.555 0 127.54 0 125.055C0 122.569 33.5786 120.555 75 120.555C116.421 120.555 150 122.569 150 125.055Z" fill="white" fill-opacity="0.1"/>
<path fill-rule="evenodd" clip-rule="evenodd" d="M116.482 4.4462C116.516 2.26388 118.312 0.521805 120.494 0.555159C122.676 0.588512 124.418 2.38467 124.385 4.56698L124.261 12.6958C124.227 14.8781 122.431 16.6202 120.249 16.5868C118.067 16.5535 116.325 14.7573 116.358 12.575L116.482 4.4462ZM120.448 3.55482C119.923 3.54678 119.49 3.9664 119.482 4.49204L119.358 12.6209C119.35 13.1465 119.769 13.5791 120.295 13.5872C120.82 13.5952 121.253 13.1756 121.261 12.6499L121.385 4.52114C121.393 3.99549 120.974 3.56285 120.448 3.55482ZM124.832 20.8657C124.865 18.6834 126.661 16.9413 128.844 16.9746L136.972 17.0989C139.155 17.1322 140.897 18.9284 140.863 21.1107C140.83 23.293 139.034 25.0351 136.852 25.0017L128.723 24.8775C126.541 24.8442 124.798 23.048 124.832 20.8657ZM128.798 19.9743C128.272 19.9663 127.839 20.3859 127.831 20.9115C127.823 21.4372 128.243 21.8698 128.769 21.8779L136.897 22.0021C137.423 22.0101 137.856 21.5905 137.864 21.0649C137.872 20.5392 137.452 20.1066 136.927 20.0985L128.798 19.9743ZM33.2938 27.1999C34.4847 22.5556 38.6703 19.3078 43.4648 19.3078H111.036C115.83 19.3078 120.016 22.5556 121.207 27.1999L128.496 55.628C128.848 57.0012 128.918 58.4314 128.703 59.8325L124.468 87.3575C123.68 92.4797 119.273 96.2609 114.09 96.2609H50.9415C47.807 103.916 40.283 109.308 31.4997 109.308C19.9017 109.308 10.4997 99.9061 10.4997 88.308C10.4997 78.2733 17.5379 69.8825 26.9471 67.8028L25.7768 59.7877C25.5759 58.4118 25.6503 57.0097 25.9957 55.6628L33.2938 27.1999ZM29.9152 67.3668C30.4383 67.3278 30.9666 67.308 31.4997 67.308C43.0976 67.308 52.4996 76.71 52.4996 88.308C52.4996 90.0142 52.2962 91.6727 51.9122 93.2609H114.09C117.792 93.2609 120.94 90.56 121.503 86.9013L125.738 59.3764L125.746 59.3183L125.751 59.2835H103.383L97.0428 68.1601C95.0718 70.9195 91.8896 72.5572 88.4986 72.5572H66.9481C63.5571 72.5572 60.3748 70.9195 58.4039 68.1601L52.0634 59.2835H28.7354L28.7453 59.3543L29.9152 67.3668ZM118.301 27.945L125.567 56.2835H115.725V36.2883C115.725 32.1462 112.368 28.7883 108.225 28.7883H46.2726C42.1305 28.7883 38.7726 32.1462 38.7726 36.2883V56.2835H28.9336L36.1998 27.945C37.0504 24.6277 40.0401 22.3078 43.4648 22.3078H111.036C114.46 22.3078 117.45 24.6277 118.301 27.945ZM112.725 39.7697C111.472 38.8282 109.914 38.2703 108.225 38.2703H46.2726C44.5842 38.2703 43.0261 38.8282 41.7726 39.7697V36.2883C41.7726 33.8031 43.7873 31.7883 46.2726 31.7883H108.225C110.711 31.7883 112.725 33.8031 112.725 36.2883V39.7697ZM41.7726 56.2835H52.8354C53.3198 56.2835 53.7744 56.5175 54.056 56.9117L60.8451 66.4164C62.2529 68.3874 64.5259 69.5571 66.9481 69.5571H88.4986C90.9207 69.5571 93.1938 68.3874 94.6016 66.4164L101.391 56.9117C101.672 56.5175 102.127 56.2835 102.611 56.2835H112.725V55.4784L112.424 53.8998C112.385 53.6995 112.339 53.5024 112.286 53.3087C111.561 51.7957 110.015 50.7508 108.225 50.7508H46.2726C44.2022 50.7508 42.4583 52.1491 41.9338 54.0528C41.9088 54.2007 41.8881 54.3501 41.8718 54.501L41.7726 55.4173V56.2835ZM13.4997 88.308C13.4997 78.3669 21.5585 70.308 31.4997 70.308C41.4408 70.308 49.4997 78.3669 49.4997 88.308C49.4997 98.2492 41.4408 106.308 31.4997 106.308C21.5585 106.308 13.4997 98.2492 13.4997 88.308ZM27.7497 78.558C27.7497 76.4869 29.4286 74.808 31.4997 74.808C33.5707 74.808 35.2497 76.4869 35.2497 78.558V87.558C35.2497 89.6291 33.5707 91.308 31.4997 91.308C29.4286 91.308 27.7497 89.6291 27.7497 87.558V78.558ZM31.4997 77.808C31.0854 77.808 30.7497 78.1438 30.7497 78.558V87.558C30.7497 87.9722 31.0854 88.308 31.4997 88.308C31.9139 88.308 32.2497 87.9722 32.2497 87.558V78.558C32.2497 78.1438 31.9139 77.808 31.4997 77.808ZM31.4997 101.808C29.4286 101.808 27.7497 100.129 27.7497 98.0581C27.7497 95.987 29.4286 94.3081 31.4997 94.3081C33.5707 94.3081 35.2497 95.987 35.2497 98.0581C35.2497 100.129 33.5707 101.808 31.4997 101.808ZM30.7497 98.0581C30.7497 98.4723 31.0854 98.8081 31.4997 98.8081C31.9139 98.8081 32.2497 98.4723 32.2497 98.0581C32.2497 97.6438 31.9139 97.3081 31.4997 97.3081C31.0854 97.3081 30.7497 97.6438 30.7497 98.0581Z" fill="white"/>
</svg>
