<svg width="44" height="32" viewBox="0 0 44 32" fill="none" xmlns="http://www.w3.org/2000/svg">
<path d="M12.4502 0.690552C12.3424 0.690552 12.2256 0.690552 12.1178 0.699536C9.07207 0.771411 5.33457 1.66086 0.680664 3.72727V25.5952C6.14316 23.0077 10.267 22.262 13.6361 22.6214C14.867 22.7472 15.999 23.0257 17.0412 23.3941L12.9893 16.3144C12.2166 16.6288 11.3811 16.8085 10.5006 16.8085C6.88797 16.8085 3.94199 13.8616 3.94199 10.2499C3.94199 6.63821 6.88797 3.69133 10.5006 3.69133C14.1123 3.69133 17.0592 6.63821 17.0592 10.2499C17.0592 12.4062 16.008 14.3199 14.3908 15.5238L19.5389 24.5081C20.0959 24.7956 20.626 25.1101 21.1471 25.4245V3.59251C19.0627 2.00227 16.6369 0.897193 13.4205 0.717505C13.1061 0.699536 12.7826 0.690552 12.4502 0.690552ZM31.4971 0.690552C31.1646 0.690552 30.8322 0.699536 30.5178 0.717505C27.3014 0.897193 24.8846 2.00227 22.7912 3.59251V25.4245C24.9385 24.1128 27.2924 22.9359 30.3021 22.6214C33.6713 22.262 37.8041 23.0077 43.2576 25.5952V3.72727C38.6127 1.66086 34.8752 0.771411 31.8295 0.699536C31.7127 0.699536 31.6049 0.690552 31.4971 0.690552ZM10.5006 5.30852C7.76215 5.30852 5.55918 7.50969 5.55918 10.2499C5.55918 12.9902 7.76215 15.1913 10.5006 15.1913C13.2408 15.1913 15.442 12.9902 15.442 10.2499C15.442 7.50969 13.2408 5.30852 10.5006 5.30852ZM10.7072 6.55735H10.9588C8.79356 8.19251 7.83402 10.3398 7.9607 12.8644C5.61937 9.37844 8.07481 6.62922 10.7072 6.55735ZM11.8842 24.2116C9.00918 24.2386 5.4334 25.0921 0.680664 27.446V31.2644C6.14316 28.6769 10.267 27.9312 13.6361 28.2906C15.3072 28.4702 16.7717 28.9105 18.1104 29.4855C17.6881 30.0335 17.2748 30.6804 16.8615 31.4351H21.6502L18.4158 25.8019C16.9244 25.0562 15.3342 24.4902 13.4654 24.2925C12.9623 24.2386 12.4322 24.2116 11.8842 24.2116ZM31.7307 24.2116C31.2994 24.2206 30.8861 24.2476 30.4818 24.2925C27.4271 24.6159 25.1271 25.9097 22.7912 27.3831V27.4101C22.2432 27.2394 21.6861 27.2034 21.1471 27.3023L23.51 31.4351H27.3912C26.8521 30.6984 26.3311 30.0515 25.801 29.4945C27.1486 28.9105 28.6221 28.4702 30.3021 28.2906C33.6713 27.9312 37.8041 28.6769 43.2576 31.2644V27.446C38.4869 25.0831 34.8932 24.2206 32.0092 24.2116H31.7307Z" fill="white"/>
</svg>
